<?xml version="1.0" encoding="iso-8859-1"?>
<!-- Generator: Adobe Illustrator 19.0.0, SVG Export Plug-In . SVG Version: 6.00 Build 0)  -->
<svg version="1.1" id="Layer_1" xmlns="http://www.w3.org/2000/svg" xmlns:xlink="http://www.w3.org/1999/xlink" x="0px" y="0px"
	 viewBox="0 0 512 512" style="enable-background:new 0 0 512 512;" xml:space="preserve">
<path style="fill:#FFAD61;" d="M488.529,400.963L251.813,164.247c13.475-40.711,4.026-87.348-28.365-119.738
	c-45.748-45.748-119.919-45.748-165.667,0s-45.748,119.919,0,165.667c32.39,32.39,79.026,41.84,119.738,28.365l24.153,24.153
	l14.944-14.944l8.966,38.855l21.349,21.349h28.18v28.18l16.652,16.652h49.529v49.529l34.158,34.158h34.443v34.443l30.885,30.884
	l47.751-47.751v-53.087H488.529z M87.67,111.972c-10.376-10.376-10.376-27.198,0-37.574s27.198-10.376,37.574,0
	s10.376,27.198,0,37.574S98.046,122.348,87.67,111.972z"/>
<g>
	<path style="fill:#534741;" d="M80.457,67.186c-14.335,14.336-14.335,37.662,0,51.998l0,0c7.168,7.167,16.583,10.752,25.999,10.752
		c9.416,0,18.831-3.584,26-10.752c14.335-14.336,14.335-37.662,0-51.998C118.12,52.85,94.794,52.851,80.457,67.186z M118.032,104.76
		c-6.383,6.383-16.769,6.382-23.15,0c-6.383-6.383-6.383-16.767,0-23.15c6.382-6.383,16.767-6.384,23.15,0
		C124.414,87.993,124.414,98.377,118.032,104.76z"/>
	<path style="fill:#534741;" d="M495.741,393.753L263.349,161.36c12.298-44.289,0.06-91.313-32.688-124.062
		C206.608,13.246,174.63,0,140.615,0C106.6,0,74.621,13.246,50.57,37.297C26.518,61.35,13.272,93.329,13.272,127.343
		s13.246,65.993,37.297,90.046c32.751,32.751,79.772,44.992,124.062,32.688l19.828,19.829c3.984,3.983,10.442,3.983,14.424,0
		l1.933-1.933l4.828,20.925c0.43,1.862,1.375,3.568,2.726,4.919l21.349,21.348c1.912,1.912,4.507,2.987,7.212,2.987h17.981v17.981
		c0,2.705,1.075,5.3,2.987,7.212l16.651,16.652c1.912,1.912,4.507,2.987,7.212,2.987h39.331v39.33c0,2.705,1.075,5.3,2.987,7.212
		l34.157,34.158c1.912,1.912,4.507,2.987,7.212,2.987h24.245v24.243c0,2.705,1.075,5.3,2.987,7.212l30.884,30.884
		c1.992,1.992,4.602,2.987,7.212,2.987c2.61,0,5.22-0.995,7.212-2.987l47.75-47.751c1.912-1.912,2.987-4.506,2.987-7.212v-53.087
		C498.728,398.259,497.654,395.665,495.741,393.753z M440.779,487.377l-20.685-20.685v-30.218c0-5.633-4.567-10.199-10.199-10.199
		h-30.218l-28.183-28.183v-45.304c0-5.633-4.567-10.199-10.199-10.199h-45.305l-10.678-10.678v-23.956
		c0-5.633-4.567-10.199-10.199-10.199h-23.956l-16.293-16.293l-8.309-36.004c-0.833-3.613-3.562-6.489-7.126-7.511
		s-7.402-0.03-10.024,2.592l-7.733,7.732L184.73,231.33c-2.726-2.726-6.755-3.683-10.417-2.47
		c-38.661,12.795-80.549,2.874-109.319-25.896c-20.2-20.2-31.323-47.055-31.323-75.621s11.124-55.421,31.324-75.622
		c20.199-20.199,47.054-31.323,75.621-31.323c28.566,0,55.421,11.124,75.621,31.324c28.77,28.77,38.693,70.659,25.895,109.32
		c-1.212,3.66-0.256,7.691,2.47,10.417L478.33,405.189v24.95L266.27,218.079c-3.984-3.982-10.44-3.983-14.425,0
		c-3.983,3.983-3.983,10.441,0,14.425l221.903,221.903L440.779,487.377z"/>
	<path style="fill:#534741;" d="M241.763,193.572c-3.982-3.983-10.441-3.984-14.424-0.001c-3.984,3.983-3.984,10.441-0.001,14.424
		l3.088,3.088c1.992,1.992,4.602,2.988,7.213,2.988c2.61,0,5.22-0.995,7.211-2.986c3.984-3.983,3.984-10.441,0.001-14.424
		L241.763,193.572z"/>
</g>
<g>
</g>
<g>
</g>
<g>
</g>
<g>
</g>
<g>
</g>
<g>
</g>
<g>
</g>
<g>
</g>
<g>
</g>
<g>
</g>
<g>
</g>
<g>
</g>
<g>
</g>
<g>
</g>
<g>
</g>
</svg>
